<?xml version="1.0" encoding="utf-8"?>
<!-- Generator: Adobe Illustrator 23.0.3, SVG Export Plug-In . SVG Version: 6.00 Build 0)  -->
<svg version="1.1" id="Layer_1" xmlns="http://www.w3.org/2000/svg" xmlns:xlink="http://www.w3.org/1999/xlink" x="0px" y="0px"
	 viewBox="0 0 458.7 458.7" style="enable-background:new 0 0 458.7 458.7;" xml:space="preserve">
<style type="text/css">
	.st0{fill:#FFFFFF;}
</style>
<g>
	<g>
		<path class="st0" d="M8.6,245.8l232.1,162.7c6.1,4.3,14.2,4.8,20.8,1.4c6.7-3.5,10.8-10.3,10.8-17.8v-92L427,408.5
			c6.1,4.3,14.2,4.8,20.8,1.4c6.7-3.5,10.8-10.3,10.8-17.8V66.6c0-7.5-4.2-14.4-10.8-17.8c-2.9-1.5-6.1-2.3-9.3-2.3
			c-4.1,0-8.1,1.2-11.6,3.6L272.3,158.6v-92c0-7.5-4.2-14.4-10.8-17.8c-2.9-1.5-6.1-2.3-9.3-2.3c-4.1,0-8.1,1.2-11.6,3.6L8.6,212.9
			c-5.4,3.8-8.6,9.9-8.6,16.5C0,235.9,3.2,242,8.6,245.8z"/>
	</g>
</g>
</svg>
