<?xml version="1.0" encoding="utf-8"?>
<!-- Generator: Adobe Illustrator 23.0.3, SVG Export Plug-In . SVG Version: 6.00 Build 0)  -->
<svg version="1.1" id="Capa_1" xmlns="http://www.w3.org/2000/svg" xmlns:xlink="http://www.w3.org/1999/xlink" x="0px" y="0px"
	 viewBox="0 0 22.3 22.3" style="enable-background:new 0 0 22.3 22.3;" xml:space="preserve">
<style type="text/css">
	.st0{fill:#FFFFFF;}
</style>
<g>
	<g id="c95_rewind">
		<path class="st0" d="M9.1,2.3c0.1-0.1,0.3-0.1,0.4,0l10.8,8.5c0.1,0.1,0.2,0.2,0.2,0.3c0,0.1-0.1,0.2-0.2,0.3L9.5,19.9
			C9.5,20,9.4,20,9.3,20l-0.2,0c-0.1-0.1-0.2-0.2-0.2-0.4v-17C8.9,2.5,9,2.3,9.1,2.3z"/>
		<path class="st0" d="M0.2,2.3c0.1-0.1,0.3-0.1,0.4,0l10.8,8.5c0.1,0.1,0.2,0.2,0.2,0.3c0,0.1-0.1,0.2-0.2,0.3L0.6,19.9
			C0.6,20,0.5,20,0.4,20l-0.2,0C0.1,19.9,0,19.8,0,19.6v-17C0,2.5,0.1,2.3,0.2,2.3z"/>
		<path class="st0" d="M19.3,2.3h2.7c0.2,0,0.3,0.2,0.3,0.4v16.9c0,0.2-0.1,0.4-0.3,0.4h-2.7c-0.2,0-0.3-0.2-0.3-0.4V2.7
			C19,2.4,19.1,2.3,19.3,2.3z"/>
	</g>
</g>
</svg>
