<?xml version="1.0" encoding="utf-8"?>
<!-- Generator: Adobe Illustrator 23.0.3, SVG Export Plug-In . SVG Version: 6.00 Build 0)  -->
<svg version="1.1" id="Layer_1" xmlns="http://www.w3.org/2000/svg" xmlns:xlink="http://www.w3.org/1999/xlink" x="0px" y="0px"
	 viewBox="0 0 458.7 458.7" style="enable-background:new 0 0 458.7 458.7;" xml:space="preserve">
<style type="text/css">
	.st0{fill:#FFFFFF;}
</style>
<g>
	<g>
		<path class="st0" d="M450.1,212.9L218,50.1c-6.1-4.3-14.2-4.8-20.8-1.4c-6.7,3.5-10.8,10.3-10.8,17.8v92L31.7,50.1
			c-6.1-4.3-14.2-4.8-20.8-1.4C4.2,52.2,0,59.1,0,66.6v325.5c0,7.5,4.2,14.4,10.8,17.8c2.9,1.5,6.1,2.3,9.3,2.3
			c4.1,0,8.1-1.2,11.6-3.6L186.4,300v92c0,7.5,4.2,14.4,10.8,17.8c2.9,1.5,6.1,2.3,9.3,2.3c4.1,0,8.1-1.2,11.6-3.6l232.1-162.7
			c5.4-3.8,8.6-9.9,8.6-16.5C458.6,222.8,455.5,216.6,450.1,212.9z"/>
	</g>
</g>
</svg>
