<?xml version="1.0" encoding="utf-8"?>
<!-- Generator: Adobe Illustrator 23.0.3, SVG Export Plug-In . SVG Version: 6.00 Build 0)  -->
<svg version="1.1" id="Capa_1" xmlns="http://www.w3.org/2000/svg" xmlns:xlink="http://www.w3.org/1999/xlink" x="0px" y="0px"
	 viewBox="0 0 22.3 22.3" style="enable-background:new 0 0 22.3 22.3;" xml:space="preserve">
<style type="text/css">
	.st0{fill:#FFFFFF;}
</style>
<g>
	<g id="c95_rewind">
		<path class="st0" d="M13.1,20c-0.1,0.1-0.3,0.1-0.4,0L1.9,11.4c-0.1-0.1-0.2-0.2-0.2-0.3c0-0.1,0.1-0.2,0.2-0.3l10.8-8.5
			c0.1-0.1,0.2-0.1,0.3-0.1l0.2,0c0.1,0.1,0.2,0.2,0.2,0.4v17C13.4,19.8,13.3,19.9,13.1,20z"/>
		<path class="st0" d="M22,20c-0.1,0.1-0.3,0.1-0.4,0l-10.8-8.5c-0.1-0.1-0.2-0.2-0.2-0.3c0-0.1,0.1-0.2,0.2-0.3l10.8-8.5
			c0.1-0.1,0.2-0.1,0.2-0.1l0.2,0c0.1,0.1,0.2,0.2,0.2,0.4v17C22.3,19.8,22.2,19.9,22,20z"/>
		<path class="st0" d="M3,20H0.3C0.1,20,0,19.8,0,19.6L0,2.7c0-0.2,0.1-0.4,0.3-0.4H3c0.2,0,0.3,0.2,0.3,0.4v16.9
			C3.3,19.8,3.1,20,3,20z"/>
	</g>
</g>
</svg>
