<?xml version="1.0" encoding="iso-8859-1"?>
<!-- Generator: Adobe Illustrator 19.0.0, SVG Export Plug-In . SVG Version: 6.00 Build 0)  -->
<svg version="1.1" id="Layer_1" xmlns="http://www.w3.org/2000/svg" xmlns:xlink="http://www.w3.org/1999/xlink" x="0px" y="0px"
	 viewBox="0 0 484.194 484.194" style="enable-background:new 0 0 484.194 484.194;" xml:space="preserve">
<g>
	<g>
		<g>
			<path d="M0,0v484.194h484.194V0H0z M64.889,469.195H15v-59.872h49.889V469.195z M64.889,394.323H15V329.46h49.889V394.323z
				 M64.889,314.46H15v-64.863h49.889V314.46z M64.889,169.734v64.863H15v-64.863L64.889,169.734L64.889,169.734z M64.889,154.734
				H15V89.872h49.889V154.734z M64.889,74.872H15V15h49.889V74.872z M404.306,469.194H79.889V15h324.417V469.194z M419.305,15
				h49.889v59.872h-49.889V15z M469.195,469.194h-49.889v-59.872h49.889V469.194z M469.195,394.323h-49.889V329.46h49.889V394.323z
				 M469.195,314.46h-49.889v-64.863h49.889V314.46z M469.195,234.597h-49.889v-64.863h49.889V234.597z M469.195,154.735h-49.889
				v-0.001V89.872h49.889V154.735z"/>
			<path d="M184.683,165.073v144.065l144.065-72.032L184.683,165.073z M199.683,189.344l95.524,47.762l-95.524,47.762V189.344z"/>
		</g>
	</g>
</g>
<g>
</g>
<g>
</g>
<g>
</g>
<g>
</g>
<g>
</g>
<g>
</g>
<g>
</g>
<g>
</g>
<g>
</g>
<g>
</g>
<g>
</g>
<g>
</g>
<g>
</g>
<g>
</g>
<g>
</g>
</svg>
