<?xml version="1.0" encoding="utf-8"?>
<!-- Generator: Adobe Illustrator 23.0.3, SVG Export Plug-In . SVG Version: 6.00 Build 0)  -->
<svg version="1.1" id="Capa_1" xmlns="http://www.w3.org/2000/svg" xmlns:xlink="http://www.w3.org/1999/xlink" x="0px" y="0px"
	 viewBox="0 0 450.2 450.2" style="enable-background:new 0 0 450.2 450.2;" xml:space="preserve">
<style type="text/css">
	.st0{fill:#FFFFFF;}
</style>
<g>
	<g>
		<g>
			<path class="st0" d="M441.4,398.7L276.9,234.2c16.3-24.5,25-53.2,25-83.3c0-40.3-15.7-78.2-44.2-106.7C229.2,15.7,191.3,0,151,0
				C110.7,0,72.7,15.7,44.2,44.2C15.7,72.7,0,110.6,0,151c0,40.3,15.7,78.2,44.2,106.8c28.5,28.5,66.4,44.2,106.7,44.2
				c30.1,0,58.8-8.7,83.3-25l164.4,164.4c5.7,5.7,13.3,8.9,21.4,8.9c8.1,0,15.6-3.1,21.4-8.8C453.1,429.6,453.1,410.4,441.4,398.7z
				 M220.3,220.3C201.8,238.8,177.2,249,151,249c-26.2,0-50.8-10.2-69.4-28.7c-18.5-18.5-28.7-43.2-28.7-69.4
				c0-26.2,10.2-50.8,28.7-69.4c18.5-18.5,43.2-28.7,69.4-28.7c26.2,0,50.8,10.2,69.4,28.7c18.5,18.5,28.7,43.1,28.7,69.4
				C249,177.2,238.9,201.8,220.3,220.3z"/>
		</g>
		<g>
			<path class="st0" d="M207.5,144.3H162V98.7c0-3.9-3.2-7.1-7.2-7.1c-3.9,0-7.1,3.2-7.1,7.1v45.5h-45.5c-3.9,0-7.1,3.2-7.1,7.1
				s3.2,7.1,7.1,7.1h45.5v45.5c0,3.9,3.2,7.1,7.1,7.1c3.9,0,7.2-3.2,7.2-7.1v-45.5h45.5c3.9,0,7.2-3.2,7.2-7.1
				S211.4,144.3,207.5,144.3z"/>
		</g>
	</g>
</g>
</svg>
