<?xml version="1.0" encoding="utf-8"?>
<!-- Generator: Adobe Illustrator 23.0.3, SVG Export Plug-In . SVG Version: 6.00 Build 0)  -->
<svg version="1.1" id="Capa_1" xmlns="http://www.w3.org/2000/svg" xmlns:xlink="http://www.w3.org/1999/xlink" x="0px" y="0px"
	 viewBox="0 0 349.8 349.8" style="enable-background:new 0 0 349.8 349.8;" xml:space="preserve">
<style type="text/css">
	.st0{fill:#FFFFFF;}
</style>
<g>
	<g>
		<g>
			<path class="st0" d="M342.9,309.8L215.2,182c12.6-19,19.4-41.3,19.4-64.7c0-31.3-12.2-60.8-34.4-82.9C178.1,12.2,148.6,0,117.3,0
				C86,0,56.5,12.2,34.3,34.4C12.2,56.5,0,86,0,117.3c0,31.3,12.2,60.8,34.3,82.9c22.2,22.1,51.6,34.4,82.9,34.4
				c23.4,0,45.7-6.8,64.7-19.4l127.8,127.8c4.4,4.4,10.3,6.9,16.6,6.9c6.3,0,12.2-2.4,16.6-6.9C352.1,333.8,352.1,318.9,342.9,309.8
				z M171.2,171.2c-14.4,14.4-33.5,22.3-53.9,22.3c-20.3,0-39.5-7.9-53.9-22.3c-14.4-14.4-22.3-33.5-22.3-53.9S49,77.8,63.4,63.4
				C77.8,49,97,41.1,117.3,41.1c20.4,0,39.5,7.9,53.9,22.3c14.4,14.4,22.3,33.5,22.3,53.9C193.5,137.6,185.6,156.8,171.2,171.2z"/>
		</g>
		<g>
			<path class="st0" d="M155.4,112.5H79.1c-2.9,0-5.2,2.3-5.2,5.2c0,2.9,2.3,5.2,5.2,5.2h76.3c2.9,0,5.2-2.3,5.2-5.2
				C160.6,114.8,158.3,112.5,155.4,112.5z"/>
		</g>
	</g>
</g>
</svg>
